<svg width="16" height="16" viewBox="0 0 16 16" fill="none" xmlns="http://www.w3.org/2000/svg">
<path d="M2.24062 5.41014C2.14332 4.97183 2.15826 4.51604 2.28406 4.08504C2.40986 3.65403 2.64246 3.26177 2.96027 2.94462C3.27808 2.62748 3.67083 2.39571 4.10209 2.27081C4.53336 2.14591 4.98918 2.13192 5.42729 2.23014C5.66843 1.85301 6.00063 1.54265 6.39326 1.32767C6.78589 1.11268 7.22632 1 7.67396 1C8.12159 1 8.56202 1.11268 8.95466 1.32767C9.34729 1.54265 9.67948 1.85301 9.92062 2.23014C10.3594 2.13149 10.816 2.14542 11.248 2.27062C11.6799 2.39582 12.0732 2.62824 12.3912 2.94625C12.7092 3.26425 12.9416 3.65753 13.0668 4.08948C13.192 4.52143 13.2059 4.97803 13.1073 5.41681C13.4844 5.65795 13.7948 5.99015 14.0098 6.38278C14.2247 6.77541 14.3374 7.21584 14.3374 7.66348C14.3374 8.11111 14.2247 8.55154 14.0098 8.94418C13.7948 9.33681 13.4844 9.669 13.1073 9.91014C13.2055 10.3483 13.1915 10.8041 13.0666 11.2353C12.9417 11.6666 12.71 12.0594 12.3928 12.3772C12.0757 12.695 11.6834 12.9276 11.2524 13.0534C10.8214 13.1792 10.3656 13.1941 9.92729 13.0968C9.68646 13.4754 9.35401 13.7871 8.96071 14.003C8.56741 14.219 8.12597 14.3322 7.67729 14.3322C7.22861 14.3322 6.78717 14.219 6.39387 14.003C6.00057 13.7871 5.66812 13.4754 5.42729 13.0968C4.98918 13.195 4.53336 13.181 4.10209 13.0561C3.67083 12.9312 3.27808 12.6995 2.96027 12.3823C2.64246 12.0652 2.40986 11.6729 2.28406 11.2419C2.15826 10.8109 2.14332 10.3551 2.24062 9.91681C1.86059 9.67631 1.54757 9.34359 1.33066 8.94962C1.11375 8.55565 1 8.11321 1 7.66348C1 7.21374 1.11375 6.77131 1.33066 6.37733C1.54757 5.98336 1.86059 5.65065 2.24062 5.41014Z" stroke="white" stroke-width="1.33333" stroke-linecap="round" stroke-linejoin="round"/>
<path d="M6 7.99984L7.33333 9.33317L10 6.6665" stroke="white" stroke-width="1.33333" stroke-linecap="round" stroke-linejoin="round"/>
</svg>
