<svg width="18" height="18" viewBox="0 0 18 18" fill="none" xmlns="http://www.w3.org/2000/svg">
<g style="mix-blend-mode:luminosity">
<path opacity="0.1" d="M8.9998 17.9178C7.23599 17.9178 5.51178 17.3948 4.04522 16.4149C2.57866 15.4349 1.43562 14.0421 0.760634 12.4126C0.0856511 10.783 -0.0909552 8.98991 0.253148 7.25998C0.597252 5.53006 1.44661 3.94102 2.69382 2.69382C3.94102 1.44661 5.53006 0.597252 7.25998 0.253148C8.98991 -0.0909552 10.783 0.0856511 12.4126 0.760634C14.0421 1.43562 15.4349 2.57866 16.4149 4.04522C17.3948 5.51178 17.9178 7.23599 17.9178 8.9998C17.9156 11.3643 16.9753 13.6314 15.3034 15.3034C13.6314 16.9753 11.3643 17.9156 8.9998 17.9178Z" fill="url(#paint0_linear_2180_37592)" fill-opacity="0.5"/>
<path d="M7.24402 0.172791C8.98978 -0.174443 10.7997 0.00432317 12.4442 0.685486C14.0885 1.36669 15.4945 2.52008 16.4833 3.99994C17.472 5.47987 17.9999 7.22009 17.9999 8.99994C17.9976 11.3861 17.0485 13.674 15.3612 15.3613C13.6739 17.0485 11.386 17.9977 8.99988 17.9999C7.22003 17.9999 5.47981 17.4721 3.99988 16.4833C2.52002 15.4945 1.36663 14.0886 0.685425 12.4443C0.00426214 10.7998 -0.174504 8.98984 0.172729 7.24408C0.51999 5.49828 1.37697 3.89433 2.63562 2.63568C3.89427 1.37703 5.49822 0.520051 7.24402 0.172791ZM8.99988 1.2558C7.46826 1.2558 5.97064 1.70957 4.69714 2.56049C3.42374 3.41135 2.43173 4.62117 1.84558 6.03607C1.25945 7.45111 1.10537 9.00848 1.40417 10.5107C1.70299 12.0129 2.44128 13.3925 3.52429 14.4755C4.60729 15.5585 5.98702 16.2959 7.48914 16.5947C8.99116 16.8934 10.5479 16.7402 11.9628 16.1542C13.3778 15.5681 14.5874 14.5752 15.4384 13.3017C16.2892 12.0283 16.744 10.5314 16.744 8.99994C16.7418 6.94685 15.9252 4.9781 14.4735 3.52631C13.0217 2.07454 11.053 1.25806 8.99988 1.2558ZM8.99988 11.3095C9.57782 11.3095 10.0468 11.7784 10.0468 12.3564C10.0467 12.9342 9.57775 13.4023 8.99988 13.4023C8.42198 13.4023 7.9531 12.9343 7.953 12.3564C7.953 11.7784 8.42192 11.3095 8.99988 11.3095ZM8.99988 4.59662C9.22189 4.59664 9.43469 4.68475 9.59167 4.84174C9.74861 4.99873 9.83679 5.21155 9.83679 5.43353V9.3349C9.83674 9.55686 9.74863 9.76974 9.59167 9.9267C9.43469 10.0836 9.22186 10.1718 8.99988 10.1718C8.7779 10.1718 8.56507 10.0836 8.40808 9.9267C8.25113 9.76974 8.16302 9.55686 8.16296 9.3349V5.43353C8.16296 5.21152 8.25111 4.99874 8.40808 4.84174C8.56509 4.68473 8.77784 4.59662 8.99988 4.59662Z" fill="url(#paint1_linear_2180_37592)" fill-opacity="0.5"/>
</g>
<defs>
<linearGradient id="paint0_linear_2180_37592" x1="8.9998" y1="0.0817871" x2="8.9998" y2="17.9178" gradientUnits="userSpaceOnUse">
<stop stop-color="#00C2B8"/>
<stop offset="1" stop-color="#00A198"/>
</linearGradient>
<linearGradient id="paint1_linear_2180_37592" x1="8.99988" y1="-6.10352e-05" x2="8.99988" y2="17.9999" gradientUnits="userSpaceOnUse">
<stop stop-color="#00C2B8"/>
<stop offset="1" stop-color="#00A198"/>
</linearGradient>
</defs>
</svg>
