<svg width="16" height="16" viewBox="0 0 16 16" fill="none" xmlns="http://www.w3.org/2000/svg">
<g clip-path="url(#clip0_2163_5581)">
<path d="M7.99995 6.66675C7.64633 6.66675 7.30719 6.80722 7.05714 7.05727C6.8071 7.30732 6.66662 7.64646 6.66662 8.00008C6.66662 8.68008 6.59995 9.67341 6.49329 10.6667" stroke="#00C2B8" stroke-width="1.33333" stroke-linecap="round" stroke-linejoin="round"/>
<path d="M9.33329 8.74658C9.33329 10.3332 9.33329 12.9999 8.66663 14.6666" stroke="#00C2B8" stroke-width="1.33333" stroke-linecap="round" stroke-linejoin="round"/>
<path d="M11.5266 14.0133C11.6066 13.6133 11.8133 12.48 11.8599 12" stroke="#00C2B8" stroke-width="1.33333" stroke-linecap="round" stroke-linejoin="round"/>
<path d="M1.33337 7.99992C1.33337 6.6007 1.77362 5.23695 2.59176 4.10185C3.4099 2.96675 4.56444 2.11783 5.89186 1.67536C7.21927 1.23289 8.65225 1.21929 9.98783 1.6365C11.3234 2.0537 12.4938 2.88055 13.3334 3.99992" stroke="#00C2B8" stroke-width="1.33333" stroke-linecap="round" stroke-linejoin="round"/>
<path d="M1.33337 10.6667H1.34004" stroke="#00C2B8" stroke-width="1.33333" stroke-linecap="round" stroke-linejoin="round"/>
<path d="M14.5333 10.6667C14.6667 9.33341 14.6207 7.09741 14.5333 6.66675" stroke="#00C2B8" stroke-width="1.33333" stroke-linecap="round" stroke-linejoin="round"/>
<path d="M3.33337 13.0001C3.66671 12.0001 4.00004 10.0001 4.00004 8.00008C3.99937 7.54599 4.07602 7.0951 4.22671 6.66675" stroke="#00C2B8" stroke-width="1.33333" stroke-linecap="round" stroke-linejoin="round"/>
<path d="M5.76672 14.6666C5.90672 14.2266 6.06672 13.7866 6.14672 13.3333" stroke="#00C2B8" stroke-width="1.33333" stroke-linecap="round" stroke-linejoin="round"/>
<path d="M6 4.53346C6.60827 4.18228 7.29828 3.99745 8.00064 3.99756C8.70301 3.99767 9.39296 4.18272 10.0011 4.5341C10.6093 4.88548 11.1142 5.39079 11.4651 5.99923C11.816 6.60766 12.0005 7.29776 12 8.00012V9.33346" stroke="#00C2B8" stroke-width="1.33333" stroke-linecap="round" stroke-linejoin="round"/>
</g>
<defs>
<clipPath id="clip0_2163_5581">
<rect width="16" height="16" fill="white"/>
</clipPath>
</defs>
</svg>
